<?xml version="1.0" encoding="utf-8"?>
<!-- Generator: Adobe Illustrator 19.2.1, SVG Export Plug-In . SVG Version: 6.00 Build 0)  -->
<svg version="1.1" id="Capa_1" xmlns="http://www.w3.org/2000/svg" xmlns:xlink="http://www.w3.org/1999/xlink" x="0px" y="0px"
	 viewBox="0 0 54 42" style="enable-background:new 0 0 54 42;" xml:space="preserve">
<style type="text/css">
	.st0{opacity:0.6;fill:#333333;}
	.st1{opacity:0.5;}
	.st2{fill:#FFFFFF;}
</style>
<g>
	<path class="st0" d="M50.6,8.6c-1.4-1.2-3-1.8-4.9-1.8h-7.1l-1.4-3.3c-0.3-0.8-1-1.5-1.9-2c-0.9-0.6-1.8-0.9-2.8-0.9H20.7
		c-1,0-1.9,0.3-2.8,0.9C17,2,16.4,2.7,16,3.5l-1.4,3.3H7.6C5.6,6.8,4,7.4,2.7,8.6c-1.4,1.2-2,2.7-2,4.4v21.5c0,1.7,0.7,3.1,2,4.4
		c1.4,1.2,3,1.8,4.9,1.8h38.1c1.9,0,3.5-0.6,4.9-1.8c1.4-1.2,2-2.7,2-4.4V12.9C52.6,11.2,52,9.8,50.6,8.6z"/>
	<g class="st1">
		<path d="M33.3,2.4c0.8,0,1.5,0.2,2.3,0.7c0.7,0.5,1.2,1,1.5,1.6l1.4,3.3l0.3,0.6h0.7h7.1c1.7,0,3.1,0.5,4.2,1.6
			c1.1,1,1.7,2.2,1.7,3.6v21.5c0,1.4-0.6,2.6-1.7,3.6c-1.2,1-2.6,1.6-4.2,1.6H8.3c-1.7,0-3.1-0.5-4.2-1.6c-1.1-1-1.7-2.2-1.7-3.6
			V13.7c0-1.4,0.6-2.6,1.7-3.6c1.2-1,2.6-1.6,4.2-1.6h7.1H16l0.3-0.6l1.4-3.3c0.3-0.6,0.8-1.1,1.5-1.6c0.8-0.5,1.5-0.7,2.3-0.7H33.3
			 M33.3,1.4H21.4c-1,0-1.9,0.3-2.8,0.9c-0.9,0.6-1.5,1.2-1.9,2l-1.4,3.3H8.3c-1.9,0-3.5,0.6-4.9,1.8c-1.4,1.2-2,2.7-2,4.4v21.5
			c0,1.7,0.7,3.1,2,4.4c1.4,1.2,3,1.8,4.9,1.8h38.1c1.9,0,3.5-0.6,4.9-1.8c1.4-1.2,2-2.7,2-4.4V13.7c0-1.7-0.7-3.1-2-4.4
			c-1.4-1.2-3-1.8-4.9-1.8h-7.1L38,4.3c-0.3-0.8-1-1.5-1.9-2C35.2,1.7,34.3,1.4,33.3,1.4L33.3,1.4z"/>
	</g>
	<path class="st2" d="M32.6,2.6c0.6,0,1.2,0.2,1.7,0.6c0.6,0.3,0.9,0.7,1.1,1.1l1.4,3.3l0.5,1.2h1.3h7.1c1.4,0,2.6,0.4,3.6,1.3
		c0.9,0.8,1.4,1.7,1.4,2.9v21.5c0,1.1-0.4,2-1.4,2.9c-1,0.9-2.2,1.3-3.6,1.3H7.6c-1.4,0-2.6-0.4-3.6-1.3c-0.9-0.8-1.4-1.7-1.4-2.9
		V12.9c0-1.1,0.4-2,1.4-2.9c1-0.9,2.2-1.3,3.6-1.3h7.1H16l0.5-1.2l1.4-3.2c0.2-0.4,0.5-0.8,1.1-1.1c0.6-0.4,1.2-0.6,1.7-0.6H32.6
		 M32.6,0.6H20.7c-1,0-1.9,0.3-2.8,0.9C17,2,16.4,2.7,16,3.5l-1.4,3.3H7.6C5.6,6.8,4,7.4,2.7,8.6c-1.4,1.2-2,2.7-2,4.4v21.5
		c0,1.7,0.7,3.1,2,4.4c1.4,1.2,3,1.8,4.9,1.8h38.1c1.9,0,3.5-0.6,4.9-1.8c1.4-1.2,2-2.7,2-4.4V12.9c0-1.7-0.7-3.1-2-4.4
		c-1.4-1.2-3-1.8-4.9-1.8h-7.1l-1.4-3.3c-0.3-0.8-1-1.5-1.9-2C34.5,0.9,33.5,0.6,32.6,0.6L32.6,0.6z"/>
</g>
</svg>
